<svg xmlns="http://www.w3.org/2000/svg"  viewBox="0 0 64 64" width="64px" height="64px" baseProfile="basic"><linearGradient id="J58C5d-ugXGNyzMyV4OyEa" x1="31" x2="31" y1="15.783" y2="47.197" gradientUnits="userSpaceOnUse"><stop offset="0" stop-color="#8ab4ff"/><stop offset="1" stop-color="#e492ff"/></linearGradient><path fill="url(#J58C5d-ugXGNyzMyV4OyEa)" d="M27,41l-2-1h0.461h0.77l0.197-0.744l0.623-2.353l2.137,2.514L28,41H27z M28.7,32.647	L29.131,32h-0.783l-0.264,0.999C28.333,32.985,28.561,32.856,28.7,32.647z M40.015,32h-0.666l-0.26,0.983	c0.201-0.042,0.379-0.161,0.495-0.336L40.015,32z M46.085,37h-0.252c-0.413,0.714-0.883,1.39-1.398,2.029l0.524,0.617	C45.404,38.802,45.781,37.918,46.085,37z M38,40h-0.769H37v1h1V40z M24.309,31.629l-1.962,0.787l0.976,2.938L24.309,31.629z M36.182,29h0.592h2.069H42h1v0.703l1.59,1.59l0.093,0.093l2.091-1.003l0.685-0.963L47.771,29h0.516h0.443h0.722l0.028,0.086L58,25	l1-1l-4-1l-4,2l-2-4v-1l-4,2l-2,2l-6.314,2.706L36.182,29z M14.268,36.376l2.296-3.224c-0.102-0.38-0.199-0.761-0.273-1.152h-0.92	L14.268,36.376z M30.709,35.684l0.817,0.961l0.494-1.751C31.638,35.214,31.204,35.489,30.709,35.684z M14,45v2h2l1-1l-1-2L14,45z M8.052,46.526L9,47l1-1l-0.599-0.599L8.052,46.526z M31,29h0.414l0.293,0.293l1.476,1.476l1.112-3.942L34,27l-1.891,1.5L30.862,29	H31z M7.927,45.073L7,46l0.614,0.307L7.927,45.073z M43.585,40c-2.881,3.042-6.934,4.956-11.447,4.995l-0.14,0.459l-0.87-0.497	c-0.721-0.042-1.434-0.115-2.127-0.247V44l-2-2h-2v1l0.715,0.715c-0.655-0.28-1.278-0.615-1.884-0.976L24,40h-0.52h-0.088h-1.981	H20.69l-0.227-0.685L19.693,37H19l0.766,2.147l0.874,1.116c-0.963-0.971-1.788-2.073-2.479-3.263h-0.733L16,39.007V40h-1h-0.223	h-0.544c0.092,0.164,0.178,0.332,0.275,0.492L14,41v1l-1,1l1,1l1-1h1h0.331c3.208,3.67,7.912,6,13.169,6	c6.576,0,12.288-3.635,15.273-9H43.585z M13.891,25h1.281h0.719h0.626c1.191-4.605,4.378-8.404,8.589-10.421	C19.7,15.98,15.318,19.895,13.266,25H13.891z M8.266,43.734l0.499-1.97L8,41l-1,2l1,1L8.266,43.734z M3,45v1h1l1-1H3z M5,48h1h1v-1	H5V48z"/><linearGradient id="J58C5d-ugXGNyzMyV4OyEb" x1="32" x2="32" y1="25.174" y2="41.595" gradientUnits="userSpaceOnUse"><stop offset="0" stop-color="#1a6dff"/><stop offset="1" stop-color="#c822ff"/></linearGradient><path fill="url(#J58C5d-ugXGNyzMyV4OyEb)" d="M5.891,26l-0.25,1h0.969l0.25-1h1.031	l-0.75,3H6.109l0.361-1.446H5.502L5.141,29H4.109l0.75-3H5.891z M9.141,29H8.908H8.109l0.75-3h0.268h0.763h0.969H11h0.891l-0.75,3	H11h-0.891H9.141z M9.251,28.557h0.969l0.508-2.03H9.759L9.251,28.557z M12.859,26l-0.75,3h1.031l0.426-1.706l0.568,1.604L14.109,29	h0.061l0,0.001L14.173,29h0.968l0.75-3h-1.031l-0.416,1.665l-0.568-1.604L13.891,26H12.859z M0,39h7.392H9h0.461l1.323-5H10H8.715	H4.785l1.059-4H3.774l-1.323,5H4h0.52h3.931l-0.794,3H0V39z M45.609,36h-0.457l-2.099,2.948L43.098,39h-0.082h-1.149h-0.838l-3.4-4	H37.52l-1.059,4h-2.069l0.129-0.489L32.93,38.99l-1.523,4.974l-0.171-0.098L31.968,39h-1.822l-3.4-4H26.52l-1.059,4H23.48h-0.088	h-1.981l-0.997-3H17.37l0.736-1h1.976L19.3,32.647l-4.3,6.04V39h-0.223h-1.149h-1.052l-0.782,3.106l-2.641,2.201L12.521,31H6.373	l0.265-1h6.137h2.069H18v1.549L17.402,31h-2.811l-1.763,7h1.512l5.696-8h0.012h0.416h0.027l2.941,8.852l2.148-8.113L25,30h0.774	h2.069H31l2,2c-0.859,1.571-2,3-4,3h-0.185l2.672,3.144l0.726-0.251l3.524-12.49l0.196,0.073l-2.707,12.326l1.326,0.599l2.023-7.642	L36,30h0.774h2.069H42v0.117L43.883,32c-0.859,1.571-2,3-4,3h-0.185l2.73,3.212L48.274,30h0.012h0.416h0.027l2.808,8.452L53.774,30	h2.069l-2.382,9h-1.742h-0.327H49.65l-0.997-3H45.609z M45.864,35h0.481h1.976l-0.782-2.353L45.864,35z M28.04,34	c0.6,0,1.16-0.3,1.492-0.799L31,31h-3.421l-0.794,3H28.04z M38.923,34c0.6,0,1.16-0.3,1.492-0.799L41.883,31h-3.305l-0.794,3H38.923	z M16.859,26l-0.75,3h1.031l0.243-0.972L18.183,29h0.965l-1.199-1.519L19.935,26h-1.223l-1.009,0.753L17.891,26H16.859z M55.392,39	H56h1.461H64v-1h-3l-1-1h-2.01l1.853-7h-2.069L55.392,39z M22.352,26l0.445,3H21.79l-0.069-0.467h-1.03L20.388,29H19.26l1.945-3	H22.352z M21.642,28l-0.113-0.76L21.036,28H21.642z M24.891,26h-1.031l-0.75,3h1.031L24.891,26z"/></svg>